<?xml version="1.0" encoding="utf-8"?>
<!-- Generator: Adobe Illustrator 16.0.0, SVG Export Plug-In . SVG Version: 6.00 Build 0)  -->
<!DOCTYPE svg PUBLIC "-//W3C//DTD SVG 1.1//EN" "http://www.w3.org/Graphics/SVG/1.1/DTD/svg11.dtd">
<svg version="1.1" id="Layer_1" xmlns="http://www.w3.org/2000/svg" xmlns:xlink="http://www.w3.org/1999/xlink" x="0px" y="0px"
	 width="1023px" height="129px" viewBox="0 0 1023 129" enable-background="new 0 0 1023 129" xml:space="preserve">
<polygon fill="#FFFFFF" points="359.534,53.112 387.971,50.46 386.637,58.118 366.42,60.005 365.028,68.15 382.846,66.487 
	381.568,74.141 363.751,75.803 361.205,90.621 352.99,91.39 "/>
<path fill="#FFFFFF" d="M412.98,69.793l-2.856-12.164l-7.067,13.088L412.98,69.793z M407.678,48.116l7.895-0.735l9.43,37.056
	l-8.431,0.787l-1.957-8.268l-15.786,1.475l-4.875,8.901l-8.857,0.827L407.678,48.116z"/>
<polygon fill="#FFFFFF" points="482.768,48.554 471.403,49.613 472.726,41.848 503.668,38.963 502.346,46.729 490.983,47.787 
	485.756,78.3 477.542,79.068 "/>
<polygon fill="#FFFFFF" points="512.221,37.812 540.121,35.213 538.83,42.703 519.092,44.545 517.773,52.361 535.113,50.747 
	533.81,58.13 516.473,59.748 515.074,67.843 535.134,65.97 533.842,73.463 505.673,76.091 "/>
<path fill="#808284" stroke="#FFFFFF" stroke-miterlimit="10" d="M921.5,585"/>
<path fill="#808284" stroke="#FFFFFF" stroke-miterlimit="10" d="M921.5-186"/>
<path fill="none" stroke="#FFFFFF" stroke-width="20" stroke-miterlimit="10" d="M936,599"/>
<path fill="none" stroke="#FFFFFF" stroke-width="20" stroke-miterlimit="10" d="M936-201"/>
<g>
	<defs>
		<rect id="SVGID_1_" width="1023" height="129"/>
	</defs>
	<clipPath id="SVGID_2_">
		<use xlink:href="#SVGID_1_"  overflow="visible"/>
	</clipPath>
	<g clip-path="url(#SVGID_2_)">
		<defs>
			<rect id="SVGID_3_" x="-804" y="-82.63" width="2525.26" height="256.63"/>
		</defs>
		<clipPath id="SVGID_4_">
			<use xlink:href="#SVGID_3_"  overflow="visible"/>
		</clipPath>
		<path clip-path="url(#SVGID_4_)" fill="#FFFFFF" d="M430.194,77.2l5.698-5.811c3.231,2.932,6.646,4.332,10.915,3.938
			c3.306-0.31,5.562-2.08,5.343-4.426c-0.168-1.813-1.6-2.757-6.805-4.318c-5.038-1.522-9.604-3.732-10.119-9.227
			c-0.71-7.628,5.678-12.959,13.685-13.704c6.402-0.601,11.033,1.175,14.494,4.24l-5.13,6.185c-3.07-2.352-5.707-3.504-9.332-3.165
			c-3.466,0.323-5.266,2.428-5.092,4.295c0.186,1.974,1.758,2.688,7.019,4.294c5.317,1.603,9.4,3.805,9.905,9.248
			c0.73,7.842-5.829,13.084-13.673,13.815C439.9,83.234,434.14,81.405,430.194,77.2"/>
	</g>
	<g clip-path="url(#SVGID_2_)">
		<defs>
			<rect id="SVGID_5_" x="-804" y="-82.63" width="2525.26" height="256.63"/>
		</defs>
		<clipPath id="SVGID_6_">
			<use xlink:href="#SVGID_5_"  overflow="visible"/>
		</clipPath>
		<path clip-path="url(#SVGID_6_)" fill="#FFFFFF" d="M562.957,51.026c3.201-0.302,5.848-1.354,7.299-3.105
			c0.871-1.046,1.34-2.385,1.194-3.931c-0.123-1.276-0.577-2.15-1.452-2.879c-1.105-0.918-2.973-1.283-5.584-1.04l-6.886,0.645
			l-1.88,10.992L562.957,51.026z M550.599,33.883l13.6-1.27c5.553-0.519,9.454,0.357,12.193,2.627
			c2.044,1.694,3.299,4.217,3.582,7.253c0.336,3.576-0.606,6.785-2.587,9.175c-1.886,2.274-4.624,4.094-8.223,5.289l7.535,12.155
			l-9.334,0.872l-6.877-11.41l-6.137,0.573l-2.087,12.244l-8.213,0.766L550.599,33.883z"/>
	</g>
	<polygon clip-path="url(#SVGID_2_)" fill="#ED1C24" points="-12.012,128.76 1009.052,39.646 1009.999,-6.742 -12.001,-6.742 	"/>
	<g clip-path="url(#SVGID_2_)">
		<path fill="#FFFFFF" d="M1008,0v620H0V0H1008 M1023-15H-15v650h1038V-15L1023-15z"/>
	</g>
</g>
</svg>
