<?xml version="1.0" encoding="utf-8"?>
<!-- Generator: Adobe Illustrator 16.0.0, SVG Export Plug-In . SVG Version: 6.00 Build 0)  -->
<!DOCTYPE svg PUBLIC "-//W3C//DTD SVG 1.1//EN" "http://www.w3.org/Graphics/SVG/1.1/DTD/svg11.dtd">
<svg version="1.1" id="Layer_1" xmlns="http://www.w3.org/2000/svg" xmlns:xlink="http://www.w3.org/1999/xlink" x="0px" y="0px"
	 width="1496.035px" height="327.332px" viewBox="0 0 1496.035 327.332" enable-background="new 0 0 1496.035 327.332"
	 xml:space="preserve">
<g>
	<defs>
		<rect id="SVGID_1_" width="1496.035" height="327.332"/>
	</defs>
	<clipPath id="SVGID_2_">
		<use xlink:href="#SVGID_1_"  overflow="visible"/>
	</clipPath>
	<g clip-path="url(#SVGID_2_)">
		<g>
			<defs>
				<polyline id="SVGID_3_" points="1496.035,327.332 1496.035,0 0,0 0,327.332 				"/>
			</defs>
			<clipPath id="SVGID_4_">
				<use xlink:href="#SVGID_3_"  overflow="visible"/>
			</clipPath>
			<g clip-path="url(#SVGID_4_)">
				<g>
					<defs>
						<polyline id="SVGID_5_" points="-18.733,327.332 -18.733,-16.668 1513.267,-16.668 1513.267,327.332 						"/>
					</defs>
					<defs>
						<polyline id="SVGID_6_" points="-18.733,327.332 -18.733,-16.668 1513.267,-16.668 1513.267,327.332 						"/>
					</defs>
					<clipPath id="SVGID_7_">
						<use xlink:href="#SVGID_5_"  overflow="visible"/>
					</clipPath>
					<clipPath id="SVGID_8_" clip-path="url(#SVGID_7_)">
						<use xlink:href="#SVGID_6_"  overflow="visible"/>
					</clipPath>
					<g clip-path="url(#SVGID_8_)">
						<g>
							<defs>
								<rect id="SVGID_9_" x="-16.733" y="-17.668" width="1530" height="957"/>
							</defs>
							<defs>
								<rect id="SVGID_10_" x="-16.733" y="-17.668" width="1530" height="957"/>
							</defs>
							<clipPath id="SVGID_11_">
								<use xlink:href="#SVGID_9_"  overflow="visible"/>
							</clipPath>
							<clipPath id="SVGID_12_" clip-path="url(#SVGID_11_)">
								<use xlink:href="#SVGID_10_"  overflow="visible"/>
							</clipPath>
							<polygon clip-path="url(#SVGID_12_)" fill="#652F8F" points="-8.862,227.036 1499.175,122.167 1500.222,1.04 -5.386,1.04 
															"/>
							<g clip-path="url(#SVGID_12_)">
								<g>
									<defs>
										<polyline id="SVGID_13_" points="2260.519,308.183 2260.519,1.042 -761.78,1.042 -761.78,308.183 										"/>
									</defs>
									<defs>
										<polyline id="SVGID_14_" points="2260.519,308.183 2260.519,1.042 -761.78,1.042 -761.78,308.183 										"/>
									</defs>
									<defs>
										<polyline id="SVGID_15_" points="2260.519,308.183 2260.519,1.042 -761.78,1.042 -761.78,308.183 										"/>
									</defs>
									<defs>
										<polyline id="SVGID_16_" points="2260.519,308.183 2260.519,1.042 -761.78,1.042 -761.78,308.183 										"/>
									</defs>
									<defs>
										<polyline id="SVGID_17_" points="2260.519,308.183 2260.519,1.042 -761.78,1.042 -761.78,308.183 										"/>
									</defs>
									<defs>
										<polyline id="SVGID_18_" points="2260.519,308.183 2260.519,1.042 -761.78,1.042 -761.78,308.183 										"/>
									</defs>
									<defs>
										<polyline id="SVGID_19_" points="2260.519,308.183 2260.519,1.042 -761.78,1.042 -761.78,308.183 										"/>
									</defs>
									<defs>
										<polyline id="SVGID_20_" points="2260.519,308.183 2260.519,1.042 -761.78,1.042 -761.78,308.183 										"/>
									</defs>
									<defs>
										<polyline id="SVGID_21_" points="2260.519,308.183 2260.519,1.042 -761.78,1.042 -761.78,308.183 										"/>
									</defs>
									<defs>
										<polyline id="SVGID_22_" points="2260.519,308.183 2260.519,1.042 -761.78,1.042 -761.78,308.183 										"/>
									</defs>
									<defs>
										<polyline id="SVGID_23_" points="2260.519,308.183 2260.519,1.042 -761.78,1.042 -761.78,308.183 										"/>
									</defs>
									<defs>
										<polyline id="SVGID_24_" points="2260.519,308.183 2260.519,1.042 -761.78,1.042 -761.78,308.183 										"/>
									</defs>
									<defs>
										<polyline id="SVGID_25_" points="2260.519,308.183 2260.519,1.042 -761.78,1.042 -761.78,308.183 										"/>
									</defs>
									<defs>
										<polyline id="SVGID_26_" points="2260.519,308.183 2260.519,1.042 -761.78,1.042 -761.78,308.183 										"/>
									</defs>
									<defs>
										<polyline id="SVGID_27_" points="2260.519,308.183 2260.519,1.042 -761.78,1.042 -761.78,308.183 										"/>
									</defs>
									<defs>
										<polyline id="SVGID_28_" points="2260.519,308.183 2260.519,1.042 -761.78,1.042 -761.78,308.183 										"/>
									</defs>
									<defs>
										<polyline id="SVGID_29_" points="2260.519,308.183 2260.519,1.042 -761.78,1.042 -761.78,308.183 										"/>
									</defs>
									<defs>
										<polyline id="SVGID_30_" points="2260.519,308.183 2260.519,1.042 -761.78,1.042 -761.78,308.183 										"/>
									</defs>
									<defs>
										<polyline id="SVGID_31_" points="2260.519,308.183 2260.519,1.042 -761.78,1.042 -761.78,308.183 										"/>
									</defs>
									<defs>
										<polyline id="SVGID_32_" points="2260.519,308.183 2260.519,1.042 -761.78,1.042 -761.78,308.183 										"/>
									</defs>
									<defs>
										<polyline id="SVGID_33_" points="2260.519,308.183 2260.519,1.042 -761.78,1.042 -761.78,308.183 										"/>
									</defs>
									<defs>
										<polyline id="SVGID_34_" points="2260.519,308.183 2260.519,1.042 -761.78,1.042 -761.78,308.183 										"/>
									</defs>
									<defs>
										<polyline id="SVGID_35_" points="2260.519,308.183 2260.519,1.042 -761.78,1.042 -761.78,308.183 										"/>
									</defs>
									<defs>
										<polyline id="SVGID_36_" points="2260.519,308.183 2260.519,1.042 -761.78,1.042 -761.78,308.183 										"/>
									</defs>
									<defs>
										<polyline id="SVGID_37_" points="2260.519,308.183 2260.519,1.042 -761.78,1.042 -761.78,308.183 										"/>
									</defs>
									<defs>
										<polyline id="SVGID_38_" points="2260.519,308.183 2260.519,1.042 -761.78,1.042 -761.78,308.183 										"/>
									</defs>
									<defs>
										<polyline id="SVGID_39_" points="2260.519,308.183 2260.519,1.042 -761.78,1.042 -761.78,308.183 										"/>
									</defs>
									<defs>
										<polyline id="SVGID_40_" points="2260.519,308.183 2260.519,1.042 -761.78,1.042 -761.78,308.183 										"/>
									</defs>
									<defs>
										<polyline id="SVGID_41_" points="2260.519,308.183 2260.519,1.042 -761.78,1.042 -761.78,308.183 										"/>
									</defs>
									<defs>
										<polyline id="SVGID_42_" points="2260.519,308.183 2260.519,1.042 -761.78,1.042 -761.78,308.183 										"/>
									</defs>
									<defs>
										<polyline id="SVGID_43_" points="2260.519,308.183 2260.519,1.042 -761.78,1.042 -761.78,308.183 										"/>
									</defs>
									<defs>
										<polyline id="SVGID_44_" points="2260.519,308.183 2260.519,1.042 -761.78,1.042 -761.78,308.183 										"/>
									</defs>
									<defs>
										<polyline id="SVGID_45_" points="2260.519,308.183 2260.519,1.042 -761.78,1.042 -761.78,308.183 										"/>
									</defs>
									<defs>
										<polyline id="SVGID_46_" points="2260.519,308.183 2260.519,1.042 -761.78,1.042 -761.78,308.183 										"/>
									</defs>
									<defs>
										<polyline id="SVGID_47_" points="2260.519,308.183 2260.519,1.042 -761.78,1.042 -761.78,308.183 										"/>
									</defs>
									<defs>
										<polyline id="SVGID_48_" points="2260.519,308.183 2260.519,1.042 -761.78,1.042 -761.78,308.183 										"/>
									</defs>
									<defs>
										<polyline id="SVGID_49_" points="2260.519,308.183 2260.519,1.042 -761.78,1.042 -761.78,308.183 										"/>
									</defs>
									<defs>
										<polyline id="SVGID_50_" points="2260.519,308.183 2260.519,1.042 -761.78,1.042 -761.78,308.183 										"/>
									</defs>
									<defs>
										<polyline id="SVGID_51_" points="2260.519,308.183 2260.519,1.042 -761.78,1.042 -761.78,308.183 										"/>
									</defs>
									<defs>
										<polyline id="SVGID_52_" points="2260.519,308.183 2260.519,1.042 -761.78,1.042 -761.78,308.183 										"/>
									</defs>
									<clipPath id="SVGID_53_">
										<use xlink:href="#SVGID_13_"  overflow="visible"/>
									</clipPath>
									<clipPath id="SVGID_54_" clip-path="url(#SVGID_53_)">
										<use xlink:href="#SVGID_14_"  overflow="visible"/>
									</clipPath>
									<clipPath id="SVGID_55_" clip-path="url(#SVGID_54_)">
										<use xlink:href="#SVGID_15_"  overflow="visible"/>
									</clipPath>
									<clipPath id="SVGID_56_" clip-path="url(#SVGID_55_)">
										<use xlink:href="#SVGID_16_"  overflow="visible"/>
									</clipPath>
									<clipPath id="SVGID_57_" clip-path="url(#SVGID_56_)">
										<use xlink:href="#SVGID_17_"  overflow="visible"/>
									</clipPath>
									<clipPath id="SVGID_58_" clip-path="url(#SVGID_57_)">
										<use xlink:href="#SVGID_18_"  overflow="visible"/>
									</clipPath>
									<clipPath id="SVGID_59_" clip-path="url(#SVGID_58_)">
										<use xlink:href="#SVGID_19_"  overflow="visible"/>
									</clipPath>
									<clipPath id="SVGID_60_" clip-path="url(#SVGID_59_)">
										<use xlink:href="#SVGID_20_"  overflow="visible"/>
									</clipPath>
									<clipPath id="SVGID_61_" clip-path="url(#SVGID_60_)">
										<use xlink:href="#SVGID_21_"  overflow="visible"/>
									</clipPath>
									<clipPath id="SVGID_62_" clip-path="url(#SVGID_61_)">
										<use xlink:href="#SVGID_22_"  overflow="visible"/>
									</clipPath>
									<clipPath id="SVGID_63_" clip-path="url(#SVGID_62_)">
										<use xlink:href="#SVGID_23_"  overflow="visible"/>
									</clipPath>
									<clipPath id="SVGID_64_" clip-path="url(#SVGID_63_)">
										<use xlink:href="#SVGID_24_"  overflow="visible"/>
									</clipPath>
									<clipPath id="SVGID_65_" clip-path="url(#SVGID_64_)">
										<use xlink:href="#SVGID_25_"  overflow="visible"/>
									</clipPath>
									<clipPath id="SVGID_66_" clip-path="url(#SVGID_65_)">
										<use xlink:href="#SVGID_26_"  overflow="visible"/>
									</clipPath>
									<clipPath id="SVGID_67_" clip-path="url(#SVGID_66_)">
										<use xlink:href="#SVGID_27_"  overflow="visible"/>
									</clipPath>
									<clipPath id="SVGID_68_" clip-path="url(#SVGID_67_)">
										<use xlink:href="#SVGID_28_"  overflow="visible"/>
									</clipPath>
									<clipPath id="SVGID_69_" clip-path="url(#SVGID_68_)">
										<use xlink:href="#SVGID_29_"  overflow="visible"/>
									</clipPath>
									<clipPath id="SVGID_70_" clip-path="url(#SVGID_69_)">
										<use xlink:href="#SVGID_30_"  overflow="visible"/>
									</clipPath>
									<clipPath id="SVGID_71_" clip-path="url(#SVGID_70_)">
										<use xlink:href="#SVGID_31_"  overflow="visible"/>
									</clipPath>
									<clipPath id="SVGID_72_" clip-path="url(#SVGID_71_)">
										<use xlink:href="#SVGID_32_"  overflow="visible"/>
									</clipPath>
									<clipPath id="SVGID_73_" clip-path="url(#SVGID_72_)">
										<use xlink:href="#SVGID_33_"  overflow="visible"/>
									</clipPath>
									<clipPath id="SVGID_74_" clip-path="url(#SVGID_73_)">
										<use xlink:href="#SVGID_34_"  overflow="visible"/>
									</clipPath>
									<clipPath id="SVGID_75_" clip-path="url(#SVGID_74_)">
										<use xlink:href="#SVGID_35_"  overflow="visible"/>
									</clipPath>
									<clipPath id="SVGID_76_" clip-path="url(#SVGID_75_)">
										<use xlink:href="#SVGID_36_"  overflow="visible"/>
									</clipPath>
									<clipPath id="SVGID_77_" clip-path="url(#SVGID_76_)">
										<use xlink:href="#SVGID_37_"  overflow="visible"/>
									</clipPath>
									<clipPath id="SVGID_78_" clip-path="url(#SVGID_77_)">
										<use xlink:href="#SVGID_38_"  overflow="visible"/>
									</clipPath>
									<clipPath id="SVGID_79_" clip-path="url(#SVGID_78_)">
										<use xlink:href="#SVGID_39_"  overflow="visible"/>
									</clipPath>
									<clipPath id="SVGID_80_" clip-path="url(#SVGID_79_)">
										<use xlink:href="#SVGID_40_"  overflow="visible"/>
									</clipPath>
									<clipPath id="SVGID_81_" clip-path="url(#SVGID_80_)">
										<use xlink:href="#SVGID_41_"  overflow="visible"/>
									</clipPath>
									<clipPath id="SVGID_82_" clip-path="url(#SVGID_81_)">
										<use xlink:href="#SVGID_42_"  overflow="visible"/>
									</clipPath>
									<clipPath id="SVGID_83_" clip-path="url(#SVGID_82_)">
										<use xlink:href="#SVGID_43_"  overflow="visible"/>
									</clipPath>
									<clipPath id="SVGID_84_" clip-path="url(#SVGID_83_)">
										<use xlink:href="#SVGID_44_"  overflow="visible"/>
									</clipPath>
									<clipPath id="SVGID_85_" clip-path="url(#SVGID_84_)">
										<use xlink:href="#SVGID_45_"  overflow="visible"/>
									</clipPath>
									<clipPath id="SVGID_86_" clip-path="url(#SVGID_85_)">
										<use xlink:href="#SVGID_46_"  overflow="visible"/>
									</clipPath>
									<clipPath id="SVGID_87_" clip-path="url(#SVGID_86_)">
										<use xlink:href="#SVGID_47_"  overflow="visible"/>
									</clipPath>
									<clipPath id="SVGID_88_" clip-path="url(#SVGID_87_)">
										<use xlink:href="#SVGID_48_"  overflow="visible"/>
									</clipPath>
									<clipPath id="SVGID_89_" clip-path="url(#SVGID_88_)">
										<use xlink:href="#SVGID_49_"  overflow="visible"/>
									</clipPath>
									<clipPath id="SVGID_90_" clip-path="url(#SVGID_89_)">
										<use xlink:href="#SVGID_50_"  overflow="visible"/>
									</clipPath>
									<clipPath id="SVGID_91_" clip-path="url(#SVGID_90_)">
										<use xlink:href="#SVGID_51_"  overflow="visible"/>
									</clipPath>
									<clipPath id="SVGID_92_" clip-path="url(#SVGID_91_)">
										<use xlink:href="#SVGID_52_"  overflow="visible"/>
									</clipPath>
									<path clip-path="url(#SVGID_92_)" fill="#652F8F" d="M871.132,153.264c-3.297-16.879-9.461-32.348-18.195-45.043
										c-8.957-13.023-19.893-24.754-37.32-31.396c-18.611-7.08-36.771-2.832-55.957-3.048l-0.994-0.069
										c-24.903,2.698-52.827-2.867-72.631,7.051c-19.923,9.978-33.267,28.234-43.004,54.766l-0.685,2.209
										c-0.615,2.532-1.492,4.668-2.106,6.876c-10.118,36.58-5.761,70.781,3.088,96.234c4.89,14.08,11.755,27.047,20.824,38.018
										c9.039,10.936,20.549,20.596,38.52,25.378l2.124,0.423c0.054-0.244,0.324-0.139,0.518-0.16
										c9.782,2.374,18.452-0.406,26.647-2.253c24.29-5.472,48.875-11.347,73.497-16.133
										c31.703-6.163,55.199-33.095,65.268-74.308C876.007,190.146,874.462,170.314,871.132,153.264"/>
									<path clip-path="url(#SVGID_92_)" fill="#FFFFFF" d="M847.087,154.559c-3.236-17.272-9.352-33.087-18.043-46.053
										c-8.918-13.301-19.814-25.276-37.234-32.012c-18.59-7.187-36.777-2.771-55.974-2.929l-1.445,0.07
										c-24.928,2.85-35.137,0.877-54.985,11.101c-19.97,10.283-26.849,29.329-36.685,56.528l-3.503,12.268
										c-0.626,2.59-3.026,17.073-3.125,19.416c-1.655,38.378,2.2,50.26,10.961,76.294c4.846,14.393,13.686,23.65,22.724,34.851
										c9.007,11.16,7.794,8.808,16.995,13.847l4.635,3.237c0.055-0.251,5.248,1.671,5.438,1.647
										c9.779,2.394,13.833,4.585,22.047,2.664c24.315-5.684,37.374-9.704,62.022-14.688c31.734-6.422,55.34-34.077,65.557-76.306
										C851.841,192.297,850.361,172,847.087,154.559"/>
									<path clip-path="url(#SVGID_92_)" fill="#FFFFFF" d="M648.981,143.142c5.416-15.785,11.994-26.172,21.374-34.791
										c9.051-8.318,20.617-14.151,35.409-11.818c14.648,2.313,25.303,12.517,32.411,21.656
										c7.53,9.674,12.416,20.839,16.177,33.103c7.158,23.295,10.305,55.955-1.088,87.837
										c-5.095,14.271-12.145,26.042-21.558,34.49c-8.596,7.72-20.707,14.191-35.781,11.223
										c-14.847-2.931-24.208-12.466-31.235-21.424c-14.508-18.486-21.876-43.182-22.862-70.855
										c-0.43-12.22,0.487-26.321,4.502-41.037c0.511-1.876,0.95-3.181,1.624-5.703"/>
									<path clip-path="url(#SVGID_92_)" fill="none" stroke="#231F20" stroke-width="0.748" stroke-miterlimit="10" d="
										M648.981,143.142c5.416-15.785,11.994-26.172,21.374-34.791c9.051-8.318,20.617-14.151,35.409-11.818
										c14.648,2.313,25.303,12.517,32.411,21.656c7.53,9.674,12.416,20.839,16.177,33.103
										c7.158,23.295,10.305,55.955-1.088,87.837c-5.095,14.271-12.145,26.042-21.558,34.49
										c-8.596,7.72-20.707,14.191-35.781,11.223c-14.847-2.931-24.208-12.466-31.235-21.424
										c-14.508-18.486-21.876-43.182-22.862-70.855c-0.43-12.22,0.487-26.321,4.502-41.037c0.511-1.876,0.95-3.181,1.624-5.703"
										/>
									<path clip-path="url(#SVGID_92_)" fill="#FFFFFF" d="M684.65,143.17c7.546-12.137,19.282-21.452,33.719-18.442
										c7.706,1.604,13.561,6.263,17.863,10.894c13.294,14.316,18.984,33.522,19.068,57.522
										c0.051,16.681-4.473,35.537-12.116,47.645c-7.505,11.893-18.453,21.613-33.898,18.146
										c-13.356-3.002-22.433-14.854-28.042-26.812c-5.693-12.134-8.293-26.146-8.428-41.516
										C672.674,174.021,677.344,154.918,684.65,143.17 M650.931,147.085c-0.079-0.124-0.044,0.335-0.12,0.215
										c-11.53,42.146-5.316,75.569,7.459,101.996c6.236,12.908,15.654,25.481,30.064,32.199
										c17.658,8.228,32.996,1.632,43.916-8.554c11.32-10.558,19.003-25.828,23.99-45.02c5.283-20.354,4.938-39.098,2.539-55.839
										c-2.326-16.175-6.293-30.917-14.143-43.961c-7.275-12.093-16.483-25.289-33.146-29.925
										c-16.04-4.462-29.387,2.095-39.036,11.62c-6.072,5.99-11.881,14.078-16.431,24.106c-1.398,3.083-3.735,8.323-4.479,10.922
										c-0.247,0.859-0.337,1.012-0.521,1.811L650.931,147.085z"/>
									<path clip-path="url(#SVGID_92_)" fill="none" stroke="#231F20" stroke-width="2.2153" stroke-miterlimit="10" d="
										M684.65,143.17c7.546-12.137,19.282-21.452,33.719-18.442c7.706,1.604,13.561,6.263,17.863,10.894
										c13.294,14.316,18.984,33.522,19.068,57.522c0.051,16.681-4.473,35.537-12.116,47.645
										c-7.505,11.893-18.453,21.613-33.898,18.146c-13.356-3.002-22.433-14.854-28.042-26.812
										c-5.693-12.134-8.293-26.146-8.428-41.516C672.674,174.021,677.344,154.918,684.65,143.17z M650.931,147.085
										c-0.079-0.124-0.044,0.335-0.12,0.215c-11.53,42.146-5.316,75.569,7.459,101.996c6.236,12.908,15.654,25.481,30.064,32.199
										c17.658,8.228,32.996,1.632,43.916-8.554c11.32-10.558,19.003-25.828,23.99-45.02c5.283-20.354,4.938-39.098,2.539-55.839
										c-2.326-16.175-6.293-30.917-14.143-43.961c-7.275-12.093-16.483-25.289-33.146-29.925
										c-16.04-4.462-29.387,2.095-39.036,11.62c-6.072,5.99-11.881,14.078-16.431,24.106c-1.398,3.083-3.735,8.323-4.479,10.922
										c-0.247,0.859-0.337,1.012-0.521,1.811L650.931,147.085z"/>
									<path clip-path="url(#SVGID_92_)" fill="#808184" d="M686.233,142.961c8.1-1.252,17.456-0.481,26.856,0.372
										c4.083-5.52,9.221-9.332,14.923-12.228c-4.17-2.767-8.826-5.632-14.415-6.28
										C701.155,123.38,692.303,134.257,686.233,142.961"/>
									
										<path clip-path="url(#SVGID_92_)" fill="none" stroke="#231F20" stroke-width="1.1226" stroke-linecap="round" stroke-linejoin="round" stroke-miterlimit="10" d="
										M686.233,142.961c8.1-1.252,17.456-0.481,26.856,0.372c4.083-5.52,9.221-9.332,14.923-12.228
										c-4.17-2.767-8.826-5.632-14.415-6.28C701.155,123.38,692.303,134.257,686.233,142.961z"/>
									<path clip-path="url(#SVGID_92_)" fill="#A8A7A8" d="M713.898,142.968c5.237,0.308,5.834,11.215,0.988,12.25
										c-2.203,0.476-4.279-1.034-7.352-1.2c-3.033,6.585-5.502,16.326-6.146,24.721c8.653-2.401,7.919,14.337-0.188,12.02
										c0.011,10,2.205,18.433,4.734,26.625c2.474,0.001,4.382-1.801,6.625-1.303c4.772,1.06,4.944,12.278-1.183,12.084
										c2.696,6.345,7.651,11.069,13.084,15.442c4.454,0.479,7.605-9.609,11.998-8.613c2.443,0.553,3.411,3.707,2.985,7.146
										c2.815-3.791,5.182-8.297,7.1-13.526c-13.953,2.262-22.376-8.449-26.679-19.728c-7.588-19.904-3.431-59.405,22.328-59.237
										c-0.776-3.016-3.046-6.586-5.224-9.429c-2.401-3.131-5.402-5.974-8.35-8.476
										C722.662,133.79,718.009,137.94,713.898,142.968"/>
									<path clip-path="url(#SVGID_92_)" fill="none" stroke="#231F20" stroke-width="0.748" stroke-miterlimit="10" d="
										M713.898,142.968c5.237,0.308,5.834,11.215,0.988,12.25c-2.203,0.476-4.279-1.034-7.352-1.2
										c-3.033,6.585-5.502,16.326-6.146,24.721c8.653-2.401,7.919,14.337-0.188,12.02c0.011,10,2.205,18.433,4.734,26.625
										c2.474,0.001,4.382-1.801,6.625-1.303c4.772,1.06,4.944,12.278-1.183,12.084c2.696,6.345,7.651,11.069,13.084,15.442
										c4.454,0.479,7.605-9.609,11.998-8.613c2.443,0.553,3.411,3.707,2.985,7.146c2.815-3.791,5.182-8.297,7.1-13.526
										c-13.953,2.262-22.376-8.449-26.679-19.728c-7.588-19.904-3.431-59.405,22.328-59.237
										c-0.776-3.016-3.046-6.586-5.224-9.429c-2.401-3.131-5.402-5.974-8.35-8.476
										C722.662,133.79,718.009,137.94,713.898,142.968z"/>
									<path clip-path="url(#SVGID_92_)" fill="#77787C" d="M742.852,150.046c-12.406-1.363-21.123,10.318-24.399,22.922
										c-4.091,15.732-1.197,32.832,5.528,43.554c4.334,6.91,12.268,13.828,22.901,11.641c0.915-2.854,1.956-5.51,2.704-8.637
										c-10.476-11.315-14.814-41.768-2.503-59.989c-0.79-1.017-0.584-2.749-1.749-3.497
										c-16.047,20.561-10.604,53.882,2.988,66.117c-14.619-10.799-19.221-47.48-2.89-66.619
										C744.643,153.656,743.948,151.705,742.852,150.046"/>
									<path clip-path="url(#SVGID_92_)" fill="none" stroke="#231F20" stroke-width="0.748" stroke-miterlimit="10" d="
										M742.852,150.046c-12.406-1.363-21.123,10.318-24.399,22.922c-4.091,15.732-1.197,32.832,5.528,43.554
										c4.334,6.91,12.268,13.828,22.901,11.641c0.915-2.854,1.956-5.51,2.704-8.637c-10.476-11.315-14.814-41.768-2.503-59.989
										c-0.79-1.017-0.584-2.749-1.749-3.497c-16.047,20.561-10.604,53.882,2.988,66.117c-14.619-10.799-19.221-47.48-2.89-66.619
										C744.643,153.656,743.948,151.705,742.852,150.046z"/>
									<path clip-path="url(#SVGID_92_)" fill="#FFFFFF" d="M671.338,184.546c3.324-1.241,2.707-5.008,3.422-9.799
										c1.507-10.06,4.745-20.34,8.063-26.961c-0.709-0.21-0.95-0.757-1.497-1.084
										C675.52,156.082,672.115,171.527,671.338,184.546"/>
									<path clip-path="url(#SVGID_92_)" fill="none" stroke="#231F20" stroke-width="0.748" stroke-miterlimit="10" d="
										M671.338,184.546c3.324-1.241,2.707-5.008,3.422-9.799c1.507-10.06,4.745-20.34,8.063-26.961
										c-0.709-0.21-0.95-0.757-1.497-1.084C675.52,156.082,672.115,171.527,671.338,184.546z"/>
									<path clip-path="url(#SVGID_92_)" fill="#231F20" d="M747.403,160.385c-0.19-0.088-0.241,0.054-0.284,0.207
										c-0.2,0.011-0.283,0.206-0.522,0.154c-12.99,17.152-9.332,47.452,3.186,57.77c0.508-2.391,1.75-5.115,1.691-7.265
										c-0.049-2.01-3.012-6.103-3.772-8.089c-3.133-8.117-4.855-18.98-0.384-31.262c0.419-1.154,1.828-2.481,2.078-4.305
										C749.751,165.025,747.543,163.08,747.403,160.385"/>
									<path clip-path="url(#SVGID_92_)" fill="none" stroke="#231F20" stroke-width="0.748" stroke-miterlimit="10" d="
										M747.403,160.385c-0.19-0.088-0.241,0.054-0.284,0.207c-0.2,0.011-0.283,0.206-0.522,0.154
										c-12.99,17.152-9.332,47.452,3.186,57.77c0.508-2.391,1.75-5.115,1.691-7.265c-0.049-2.01-3.012-6.103-3.772-8.089
										c-3.133-8.117-4.855-18.98-0.384-31.262c0.419-1.154,1.828-2.481,2.078-4.305
										C749.751,165.025,747.543,163.08,747.403,160.385z"/>
									<path clip-path="url(#SVGID_92_)" fill="#808184" d="M683.717,148.225c-5.408,7.806-8.429,22.332-9.185,33.816
										c7.614-3.033,17.03-3.166,26.384-3.396c0.72-8.418,3.083-17.794,6.1-24.469
										C698.776,152.535,690.373,151.005,683.717,148.225"/>
									<path clip-path="url(#SVGID_92_)" fill="none" stroke="#231F20" stroke-width="0.748" stroke-miterlimit="10" d="
										M683.717,148.225c-5.408,7.806-8.429,22.332-9.185,33.816c7.614-3.033,17.03-3.166,26.384-3.396
										c0.72-8.418,3.083-17.794,6.1-24.469C698.776,152.535,690.373,151.005,683.717,148.225z"/>
									<path clip-path="url(#SVGID_92_)" fill="#77787C" d="M749.765,168.195c-7.749,14.304-4.678,33.074,1.826,41.246
										C754.101,193.45,752.472,180.439,749.765,168.195"/>
									<path clip-path="url(#SVGID_92_)" fill="none" stroke="#231F20" stroke-width="0.748" stroke-miterlimit="10" d="
										M749.765,168.195c-7.749,14.304-4.678,33.074,1.826,41.246C754.101,193.45,752.472,180.439,749.765,168.195z"/>
									<path clip-path="url(#SVGID_92_)" fill="#808184" d="M674.438,189.883c-0.143,14.001,2.58,25.942,6.883,36.752
										c6.869-4.916,15.559-6.874,24.095-9.092c-2.382-8.302-4.548-16.751-4.738-26.627
										C692.44,191.223,683.823,192.52,674.438,189.883"/>
									
										<path clip-path="url(#SVGID_92_)" fill="none" stroke="#231F20" stroke-width="1.1226" stroke-linecap="round" stroke-linejoin="round" stroke-miterlimit="10" d="
										M674.438,189.883c-0.143,14.001,2.58,25.942,6.883,36.752c6.869-4.916,15.559-6.874,24.095-9.092
										c-2.382-8.302-4.548-16.751-4.738-26.627C692.44,191.223,683.823,192.52,674.438,189.883z"/>
									<path clip-path="url(#SVGID_92_)" fill="#808184" d="M684.271,232.725c3.901,8.646,9.94,15.76,18.018,21.409
										c7.011-3.78,14.955-6.071,21.835-10.065c-5.554-4.434-10.065-9.62-13.549-15.541
										C702.087,230.38,694.404,233.529,684.271,232.725"/>
									
										<path clip-path="url(#SVGID_92_)" fill="none" stroke="#231F20" stroke-width="1.1226" stroke-linecap="round" stroke-linejoin="round" stroke-miterlimit="10" d="
										M684.271,232.725c3.901,8.646,9.94,15.76,18.018,21.409c7.011-3.78,14.955-6.071,21.835-10.065
										c-5.554-4.434-10.065-9.62-13.549-15.541C702.087,230.38,694.404,233.529,684.271,232.725z"/>
									<path clip-path="url(#SVGID_92_)" fill="#808184" d="M706.843,256.582c12.177,6.502,20.875-1.6,27.66-8.089
										c-1-0.647-3.52-1.351-4.371-1.394C722.33,251.661,715.565,254.561,706.843,256.582"/>
									
										<path clip-path="url(#SVGID_92_)" fill="none" stroke="#231F20" stroke-width="1.1226" stroke-linecap="round" stroke-linejoin="round" stroke-miterlimit="10" d="
										M706.843,256.582c12.177,6.502,20.875-1.6,27.66-8.089c-1-0.647-3.52-1.351-4.371-1.394
										C722.33,251.661,715.565,254.561,706.843,256.582z"/>
									<path clip-path="url(#SVGID_92_)" fill="#FFFFFF" d="M703.402,255.927c1.713,0.701,3.305,1.753,5.5,1.882
										c1.257,0.076-0.186-0.211-0.424-0.348C707.685,257.023,705.03,255.71,703.402,255.927"/>
									<path clip-path="url(#SVGID_92_)" fill="none" stroke="#231F20" stroke-width="0.748" stroke-miterlimit="10" d="
										M703.402,255.927c1.713,0.701,3.305,1.753,5.5,1.882c1.257,0.076-0.186-0.211-0.424-0.348
										C707.685,257.023,705.03,255.71,703.402,255.927z"/>
									<path clip-path="url(#SVGID_92_)" fill="#231F20" d="M763.333,73.375l-15.841,0.331
										c-5.145,0.083-50.768,0.166-60.565,6.758 M649.114,143.692c0.886-2.429,2.577-7.135,3.993-10.209
										c4.614-10.018,10.381-18.253,16.577-24.218c9.85-9.485,23.509-15.983,39.982-11.432
										c17.116,4.728,26.628,17.986,34.153,30.126c8.121,13.099,12.263,27.875,14.728,44.079
										c2.555,16.771,3.002,35.539-2.314,55.885c-5.014,19.183-12.817,34.433-24.375,44.942
										c-11.149,10.134-26.846,16.658-44.999,8.33c-14.815-6.793-24.548-19.426-31.011-32.383
										c-13.24-26.519-19.029-60.769-7.422-102.898L649.114,143.692z M647.932,145.973c-0.436,1.567-1.091,3.675-1.601,5.554
										c-4.014,14.715-4.933,28.816-4.503,41.036c0.988,27.674,8.354,52.369,22.862,70.855
										c7.027,8.957,16.39,18.493,31.237,21.423c15.072,2.972,27.184-3.502,35.779-11.222
										c9.412-8.447,16.463-20.219,21.558-34.491c11.393-31.881,8.246-64.542,1.09-87.837
										c-3.764-12.264-8.649-23.43-16.179-33.104c-7.108-9.139-17.762-19.342-32.411-21.656
										c-14.791-2.333-26.356,3.5-35.409,11.819c-9.38,8.619-15.959,19.004-21.375,34.791L647.932,145.973z M644.501,136.434
										c1.104-3.101,3.298-8.395,5.081-12.303c1.939-4.25,3.964-8.346,5.658-11.192c12.021-20.198,29.349-35.967,52.656-36.946
										c24.625-1.033,49.421-1.553,74.15-2.266c8.418-0.243,17.322-1.092,25.771,0.937c25.686,6.177,40.574,24.617,50.482,42.816
										c10.137,18.623,15.967,40.99,15.537,67.042c-0.754,45.793-23.379,80.967-49.52,94.968
										c-9.371,5.017-20.506,6.997-31.742,9.397c-21.41,4.573-44.434,9.559-65.801,14.416c-5.871,1.336-11.391,2.518-17.49,1.758
										c-20.509-2.551-34.763-14.883-44.16-26.617c-12.93-16.147-21.507-36.603-25.822-59.65
										c-4.292-22.911-4.559-49.59,4.395-79.846L644.501,136.434z M643.188,137.792c-0.618,2.55-1.498,4.696-2.109,6.919
										c-10.154,36.794-5.819,71.188,3.002,96.781c4.881,14.152,11.734,27.188,20.793,38.211
										c9.033,10.988,19.652,20.463,37.617,25.254c0,0,1.24,0.348,2.239,0.561c0.788,0.166,1.244,0.271,1.93,0.373
										c9.891,2.031,17.817-0.861,26.019-2.728c24.292-5.519,48.886-11.446,73.517-16.278
										c31.705-6.229,55.234-33.332,65.336-74.783c5.309-21.791,3.777-41.733,0.461-58.875
										c-3.283-16.976-9.436-32.528-18.158-45.288c-8.953-13.09-19.875-24.878-37.303-31.539
										c-18.605-7.106-36.77-2.82-55.963-3.019l-11.25,0.574c-0.746-0.083-50.022-1.244-62.39,6.509
										c-19.932,10.049-33.29,28.416-43.052,55.109L643.188,137.792z"/>
									
										<path clip-path="url(#SVGID_92_)" fill="none" stroke="#231F20" stroke-width="3.1943" stroke-linecap="round" stroke-linejoin="round" stroke-miterlimit="10" d="
										M763.333,73.375l-15.841,0.331c-5.145,0.083-50.768,0.166-60.565,6.758 M649.114,143.692
										c0.886-2.429,2.577-7.135,3.993-10.209c4.614-10.018,10.381-18.253,16.577-24.218c9.85-9.485,23.509-15.983,39.982-11.432
										c17.116,4.728,26.628,17.986,34.153,30.126c8.121,13.099,12.263,27.875,14.728,44.079
										c2.555,16.771,3.002,35.539-2.314,55.885c-5.014,19.183-12.817,34.433-24.375,44.942
										c-11.149,10.134-26.846,16.658-44.999,8.33c-14.815-6.793-24.548-19.426-31.011-32.383
										c-13.24-26.519-19.029-60.769-7.422-102.898L649.114,143.692z M647.932,145.973c-0.436,1.567-1.091,3.675-1.601,5.554
										c-4.014,14.715-4.933,28.816-4.503,41.036c0.988,27.674,8.354,52.369,22.862,70.855
										c7.027,8.957,16.39,18.493,31.237,21.423c15.072,2.972,27.184-3.502,35.779-11.222
										c9.412-8.447,16.463-20.219,21.558-34.491c11.393-31.881,8.246-64.542,1.09-87.837
										c-3.764-12.264-8.649-23.43-16.179-33.104c-7.108-9.139-17.762-19.342-32.411-21.656
										c-14.791-2.333-26.356,3.5-35.409,11.819c-9.38,8.619-15.959,19.004-21.375,34.791L647.932,145.973z M644.501,136.434
										c1.104-3.101,3.298-8.395,5.081-12.303c1.939-4.25,3.964-8.346,5.658-11.192c12.021-20.198,29.349-35.967,52.656-36.946
										c24.625-1.033,49.421-1.553,74.15-2.266c8.418-0.243,17.322-1.092,25.771,0.937c25.686,6.177,40.574,24.617,50.482,42.816
										c10.137,18.623,15.967,40.99,15.537,67.042c-0.754,45.793-23.379,80.967-49.52,94.968
										c-9.371,5.017-20.506,6.997-31.742,9.397c-21.41,4.573-44.434,9.559-65.801,14.416c-5.871,1.336-11.391,2.518-17.49,1.758
										c-20.509-2.551-34.763-14.883-44.16-26.617c-12.93-16.147-21.507-36.603-25.822-59.65
										c-4.292-22.911-4.559-49.59,4.395-79.846L644.501,136.434z M643.188,137.792c-0.618,2.55-1.498,4.696-2.109,6.919
										c-10.154,36.794-5.819,71.188,3.002,96.781c4.881,14.152,11.734,27.188,20.793,38.211
										c9.033,10.988,19.652,20.463,37.617,25.254c0,0,1.24,0.348,2.239,0.561c0.788,0.166,1.244,0.271,1.93,0.373
										c9.891,2.031,17.817-0.861,26.019-2.728c24.292-5.519,48.886-11.446,73.517-16.278
										c31.705-6.229,55.234-33.332,65.336-74.783c5.309-21.791,3.777-41.733,0.461-58.875
										c-3.283-16.976-9.436-32.528-18.158-45.288c-8.953-13.09-19.875-24.878-37.303-31.539
										c-18.605-7.106-36.77-2.82-55.963-3.019l-11.25,0.574c-0.746-0.083-50.022-1.244-62.39,6.509
										c-19.932,10.049-33.29,28.416-43.052,55.109L643.188,137.792z"/>
									<path clip-path="url(#SVGID_92_)" fill="#FFFFFF" d="M729.636,253.292c16.473-9.438,25.667-38.843,24.645-63.495
										c-0.926-22.186-8.05-43.625-22.561-56.382c-1.107-0.974-2.482-2.11-2.946-2.423c-1.474-0.997,0.274,0.18,1.264,1.038
										c12.907,11.195,19.755,28.716,22.38,47.438C756.072,205.533,748.494,240.766,729.636,253.292"/>
									<path clip-path="url(#SVGID_92_)" fill="none" stroke="#231F20" stroke-width="0.748" stroke-miterlimit="10" d="
										M729.636,253.292c16.473-9.438,25.667-38.843,24.645-63.495c-0.926-22.186-8.05-43.625-22.561-56.382
										c-1.107-0.974-2.482-2.11-2.946-2.423c-1.474-0.997,0.274,0.18,1.264,1.038c12.907,11.195,19.755,28.716,22.38,47.438
										C756.072,205.533,748.494,240.766,729.636,253.292z"/>
									<path clip-path="url(#SVGID_92_)" fill="#FFFFFF" d="M704.047,126.067c-8.66,2.021-15.955,9.13-21.176,17.796
										c0.873-0.261,1.732-0.531,2.607-0.788C690.433,135.417,696.303,129.231,704.047,126.067"/>
									<path clip-path="url(#SVGID_92_)" fill="none" stroke="#231F20" stroke-width="0.748" stroke-miterlimit="10" d="
										M704.047,126.067c-8.66,2.021-15.955,9.13-21.176,17.796c0.873-0.261,1.732-0.531,2.607-0.788
										C690.433,135.417,696.303,129.231,704.047,126.067z"/>
									<path clip-path="url(#SVGID_92_)" fill="#FFFFFF" d="M680.983,227.088c-4.356-10.98-7.078-23.14-7.016-37.298
										c-0.837-0.481-2.087-1.806-2.573-1.824c-0.156,15.88,2.855,29.489,8.15,41.458
										C679.831,229.191,680.158,227.413,680.983,227.088"/>
									<path clip-path="url(#SVGID_92_)" fill="none" stroke="#231F20" stroke-width="0.748" stroke-miterlimit="10" d="
										M680.983,227.088c-4.356-10.98-7.078-23.14-7.016-37.298c-0.837-0.481-2.087-1.806-2.573-1.824
										c-0.156,15.88,2.855,29.489,8.15,41.458C679.831,229.191,680.158,227.413,680.983,227.088z"/>
									<path clip-path="url(#SVGID_92_)" fill="#FFFFFF" d="M680.839,231.518c3.854,9.112,11.038,18.859,21.012,23.578
										c0.215-1.324-1.458-2.003-2.188-2.533c-6.946-5.037-12.257-12.033-15.913-19.68
										C682.661,232.514,681.31,232.332,680.839,231.518"/>
									<path clip-path="url(#SVGID_92_)" fill="none" stroke="#231F20" stroke-width="0.748" stroke-miterlimit="10" d="
										M680.839,231.518c3.854,9.112,11.038,18.859,21.012,23.578c0.215-1.324-1.458-2.003-2.188-2.533
										c-6.946-5.037-12.257-12.033-15.913-19.68C682.661,232.514,681.31,232.332,680.839,231.518z"/>
									<path clip-path="url(#SVGID_92_)" fill="#231F20" d="M703.402,255.927c1.713,0.701,3.305,1.753,5.5,1.882
										c1.257,0.078-0.186-0.213-0.424-0.347C707.685,257.023,705.03,255.71,703.402,255.927 M706.896,256.214
										c12.178,6.502,20.821-1.229,27.606-7.72c-1.001-0.646-3.52-1.352-4.37-1.395
										C722.596,251.131,716.145,255.107,706.896,256.214 M704.327,255.646c6.911,1.957,16.442-4.972,25.958-9.305
										c2.225-1.016,7.618-1.383,8.64-4.047c0.954-2.484-0.604-6.689-2.799-6.845c-2.711-0.191-6.768,5.917-8.864,7.086
										c-8.039,4.501-13.615,6.851-21.039,10.28C704.99,253.391,701.1,254.119,704.327,255.646 M684.271,232.725
										c3.901,8.646,9.94,15.762,18.018,21.409c7.013-3.78,14.955-6.071,21.835-10.065c-5.554-4.434-10.065-9.62-13.549-15.541
										C702.087,230.38,694.403,233.531,684.271,232.725 M714.42,226.416c2.208-3.329,1.602-5.973-0.648-9.042
										c-2.6-1.481-6.924,0.248-10.259,1.101c-5.128,1.317-11.765,3.217-16.775,5.567c-2.148,1.01-6.703,2.92-6.729,5.478
										c-0.022,3.026,6.22,3.092,8.467,2.996c3.626-0.156,6.615-0.832,9.079-1.341
										C703.797,229.904,709.476,228.825,714.42,226.416 M674.438,189.883c-0.143,14.001,2.579,25.943,6.883,36.752
										c6.867-4.916,15.559-6.873,24.095-9.092c-2.382-8.3-4.547-16.751-4.737-26.627
										C692.442,191.223,683.824,192.52,674.438,189.883 M705.601,189.541c1.939-2.286,1.892-5.844,0.347-9.109
										c-1.793-2.199-6.852-1.27-10.798-1.099c-5.938,0.255-11.578,0.515-17.069,2.103c-2.207,0.641-6.041,1.647-6.467,4.215
										c-0.526,3.117,3.927,4.392,7.587,4.918C688.042,191.846,698.433,190.744,705.601,189.541 M749.765,168.195
										c-7.749,14.304-4.678,33.074,1.824,41.248C754.101,193.45,752.472,180.439,749.765,168.195 M683.634,148.87
										c-5.408,7.804-8.346,21.687-9.102,33.171c7.614-3.033,17.032-3.166,26.384-3.395c0.722-8.42,3.084-17.796,6.1-24.471
										C698.776,152.533,690.291,151.649,683.634,148.87 M747.403,160.386c-0.19-0.089-0.241,0.054-0.284,0.207
										c-0.201,0.009-0.282,0.206-0.521,0.154c-11.267,17.094-7.125,46.948,3.187,57.767c0.508-2.388,1.748-5.113,1.689-7.263
										c-0.051-2.009-3.012-6.103-3.772-8.088c-3.133-8.118-4.854-18.981-0.385-31.263c0.42-1.154,1.827-2.481,2.079-4.305
										C749.751,165.027,747.545,163.08,747.403,160.386 M742.852,150.047c-12.405-1.365-21.123,10.317-24.399,22.921
										c-4.091,15.733-1.197,32.833,5.528,43.556c4.334,6.91,12.267,13.828,22.902,11.641c0.914-2.855,1.957-5.508,2.703-8.637
										c-10.156-11.551-14.814-41.769-2.503-59.99c-0.789-1.017-0.582-2.749-1.749-3.497
										c-16.046,20.562-10.604,53.882,2.988,66.118c-14.619-10.801-19.22-47.482-2.891-66.62
										C744.644,153.655,743.949,151.704,742.852,150.047 M681.708,145.992c-0.488,3.849,7.565,3.879,12.455,5.1
										c7.518,1.883,15.649,3.536,21.917,3.057c1.922-2.42,2.508-5.456,0.581-9.059c-2.012-2.028-6.362-1.635-10.887-1.906
										c-3.021-0.178-6.253-0.441-8.96-0.473C690.904,142.641,682.577,140.576,681.708,145.992 M713.896,142.969
										c5.24,0.309,5.834,11.214,0.99,12.25c-2.202,0.478-4.281-1.034-7.352-1.2c-3.033,6.585-5.502,16.329-6.146,24.722
										c8.653-2.4,7.919,14.337-0.188,12.019c0.011,10,2.206,18.434,4.732,26.625c2.476,0.001,4.383-1.8,6.627-1.303
										c4.773,1.059,4.943,12.277-1.183,12.084c2.696,6.346,7.651,11.07,13.084,15.443c4.453,0.479,7.604-9.61,11.998-8.614
										c2.445,0.553,3.411,3.707,2.984,7.146c2.816-3.789,5.182-8.296,7.101-13.525c-13.952,2.262-22.376-8.448-26.677-19.729
										c-7.589-19.904-3.433-59.404,22.325-59.233c-0.775-3.019-3.047-6.587-5.223-9.43c-2.401-3.131-5.403-5.972-8.351-8.476
										C722.662,133.791,718.008,137.941,713.896,142.969 M729.636,253.292c16.473-9.438,25.667-38.841,24.645-63.495
										c-0.928-22.186-8.052-43.625-22.562-56.38c-1.106-0.973-2.481-2.111-2.947-2.424c-1.472-0.997,0.276,0.18,1.266,1.038
										c12.906,11.195,19.757,28.717,22.38,47.438C756.074,205.533,748.494,240.766,729.636,253.292 M686.65,142.496
										c8.1-1.25,17.04-0.017,26.441,0.836c4.081-5.519,9.219-9.333,14.922-12.227c-4.17-2.768-8.825-5.633-14.416-6.282
										C701.154,123.38,692.72,133.791,686.65,142.496 M735.236,135.424c13.712,14.402,19.646,33.654,19.853,57.682
										c0.141,16.696-4.4,35.549-12.179,47.631c-7.644,11.863-18.822,21.539-34.682,17.986
										c-13.715-3.07-23.084-14.979-28.902-26.981c-5.898-12.173-8.644-26.218-8.858-41.603
										c-0.227-16.603,4.466-35.703,11.897-47.425c7.678-12.11,19.672-21.372,34.492-18.286
										C724.77,126.076,730.802,130.766,735.236,135.424"/>
									
										<path clip-path="url(#SVGID_92_)" fill="none" stroke="#231F20" stroke-width="1.1226" stroke-linecap="round" stroke-linejoin="round" stroke-miterlimit="10" d="
										M703.402,255.927c1.713,0.701,3.305,1.753,5.5,1.882c1.257,0.078-0.186-0.213-0.424-0.347
										C707.685,257.023,705.03,255.71,703.402,255.927z M706.896,256.214c12.178,6.502,20.821-1.229,27.606-7.72
										c-1.001-0.646-3.52-1.352-4.37-1.395C722.596,251.131,716.145,255.107,706.896,256.214z M704.327,255.646
										c6.911,1.957,16.442-4.972,25.958-9.305c2.225-1.016,7.618-1.383,8.64-4.047c0.954-2.484-0.604-6.689-2.799-6.845
										c-2.711-0.191-6.768,5.917-8.864,7.086c-8.039,4.501-13.615,6.851-21.039,10.28
										C704.99,253.391,701.1,254.119,704.327,255.646z M684.271,232.725c3.901,8.646,9.94,15.762,18.018,21.409
										c7.013-3.78,14.955-6.071,21.835-10.065c-5.554-4.434-10.065-9.62-13.549-15.541
										C702.087,230.38,694.403,233.531,684.271,232.725z M714.42,226.416c2.208-3.329,1.602-5.973-0.648-9.042
										c-2.6-1.481-6.924,0.248-10.259,1.101c-5.128,1.317-11.765,3.217-16.775,5.567c-2.148,1.01-6.703,2.92-6.729,5.478
										c-0.022,3.026,6.22,3.092,8.467,2.996c3.626-0.156,6.615-0.832,9.079-1.341
										C703.797,229.904,709.476,228.825,714.42,226.416z M674.438,189.883c-0.143,14.001,2.579,25.943,6.883,36.752
										c6.867-4.916,15.559-6.873,24.095-9.092c-2.382-8.3-4.547-16.751-4.737-26.627
										C692.442,191.223,683.824,192.52,674.438,189.883z M705.601,189.541c1.939-2.286,1.892-5.844,0.347-9.109
										c-1.793-2.199-6.852-1.27-10.798-1.099c-5.938,0.255-11.578,0.515-17.069,2.103c-2.207,0.641-6.041,1.647-6.467,4.215
										c-0.526,3.117,3.927,4.392,7.587,4.918C688.042,191.846,698.433,190.744,705.601,189.541z M749.765,168.195
										c-7.749,14.304-4.678,33.074,1.824,41.248C754.101,193.45,752.472,180.439,749.765,168.195z M683.634,148.87
										c-5.408,7.804-8.346,21.687-9.102,33.171c7.614-3.033,17.032-3.166,26.384-3.395c0.722-8.42,3.084-17.796,6.1-24.471
										C698.776,152.533,690.291,151.649,683.634,148.87z M747.403,160.386c-0.19-0.089-0.241,0.054-0.284,0.207
										c-0.201,0.009-0.282,0.206-0.521,0.154c-11.267,17.094-7.125,46.948,3.187,57.767c0.508-2.388,1.748-5.113,1.689-7.263
										c-0.051-2.009-3.012-6.103-3.772-8.088c-3.133-8.118-4.854-18.981-0.385-31.263c0.42-1.154,1.827-2.481,2.079-4.305
										C749.751,165.027,747.545,163.08,747.403,160.386z M742.852,150.047c-12.405-1.365-21.123,10.317-24.399,22.921
										c-4.091,15.733-1.197,32.833,5.528,43.556c4.334,6.91,12.267,13.828,22.902,11.641c0.914-2.855,1.957-5.508,2.703-8.637
										c-10.156-11.551-14.814-41.769-2.503-59.99c-0.789-1.017-0.582-2.749-1.749-3.497
										c-16.046,20.562-10.604,53.882,2.988,66.118c-14.619-10.801-19.22-47.482-2.891-66.62
										C744.644,153.655,743.949,151.704,742.852,150.047z M681.708,145.992c-0.488,3.849,7.565,3.879,12.455,5.1
										c7.518,1.883,15.649,3.536,21.917,3.057c1.922-2.42,2.508-5.456,0.581-9.059c-2.012-2.028-6.362-1.635-10.887-1.906
										c-3.021-0.178-6.253-0.441-8.96-0.473C690.904,142.641,682.577,140.576,681.708,145.992z M713.896,142.969
										c5.24,0.309,5.834,11.214,0.99,12.25c-2.202,0.478-4.281-1.034-7.352-1.2c-3.033,6.585-5.502,16.329-6.146,24.722
										c8.653-2.4,7.919,14.337-0.188,12.019c0.011,10,2.206,18.434,4.732,26.625c2.476,0.001,4.383-1.8,6.627-1.303
										c4.773,1.059,4.943,12.277-1.183,12.084c2.696,6.346,7.651,11.07,13.084,15.443c4.453,0.479,7.604-9.61,11.998-8.614
										c2.445,0.553,3.411,3.707,2.984,7.146c2.816-3.789,5.182-8.296,7.101-13.525c-13.952,2.262-22.376-8.448-26.677-19.729
										c-7.589-19.904-3.433-59.404,22.325-59.233c-0.775-3.019-3.047-6.587-5.223-9.43c-2.401-3.131-5.403-5.972-8.351-8.476
										C722.662,133.791,718.008,137.941,713.896,142.969z M729.636,253.292c16.473-9.438,25.667-38.841,24.645-63.495
										c-0.928-22.186-8.052-43.625-22.562-56.38c-1.106-0.973-2.481-2.111-2.947-2.424c-1.472-0.997,0.276,0.18,1.266,1.038
										c12.906,11.195,19.757,28.717,22.38,47.438C756.074,205.533,748.494,240.766,729.636,253.292z M686.65,142.496
										c8.1-1.25,17.04-0.017,26.441,0.836c4.081-5.519,9.219-9.333,14.922-12.227c-4.17-2.768-8.825-5.633-14.416-6.282
										C701.154,123.38,692.72,133.791,686.65,142.496z M735.236,135.424c13.712,14.402,19.646,33.654,19.853,57.682
										c0.141,16.696-4.4,35.549-12.179,47.631c-7.644,11.863-18.822,21.539-34.682,17.986
										c-13.715-3.07-23.084-14.979-28.902-26.981c-5.898-12.173-8.644-26.218-8.858-41.603
										c-0.227-16.603,4.466-35.703,11.897-47.425c7.678-12.11,19.672-21.372,34.492-18.286
										C724.77,126.076,730.802,130.766,735.236,135.424z"/>
								</g>
								<g>
									<defs>
										<rect id="SVGID_93_" x="-16.733" y="-17.668" width="1530" height="957"/>
									</defs>
									<defs>
										<rect id="SVGID_94_" x="-16.733" y="-17.668" width="1530" height="957"/>
									</defs>
									<defs>
										<rect id="SVGID_95_" x="-16.733" y="-17.668" width="1530" height="957"/>
									</defs>
									<defs>
										<rect id="SVGID_96_" x="-16.733" y="-17.668" width="1530" height="957"/>
									</defs>
									<defs>
										<rect id="SVGID_97_" x="-16.733" y="-17.668" width="1530" height="957"/>
									</defs>
									<clipPath id="SVGID_98_">
										<use xlink:href="#SVGID_93_"  overflow="visible"/>
									</clipPath>
									<clipPath id="SVGID_99_" clip-path="url(#SVGID_98_)">
										<use xlink:href="#SVGID_94_"  overflow="visible"/>
									</clipPath>
									<clipPath id="SVGID_100_" clip-path="url(#SVGID_99_)">
										<use xlink:href="#SVGID_95_"  overflow="visible"/>
									</clipPath>
									<clipPath id="SVGID_101_" clip-path="url(#SVGID_100_)">
										<use xlink:href="#SVGID_96_"  overflow="visible"/>
									</clipPath>
									<clipPath id="SVGID_102_" clip-path="url(#SVGID_101_)">
										<use xlink:href="#SVGID_97_"  overflow="visible"/>
									</clipPath>
									<polygon clip-path="url(#SVGID_102_)" fill="#231F20" points="573.149,227.915 942.929,193.422 918.292,159.564 
										940.326,120.384 574.337,153.11 600.043,186.496 									"/>
									
										<polygon clip-path="url(#SVGID_102_)" fill="none" stroke="#231F20" stroke-width="2.6426" stroke-miterlimit="10" points="
										573.149,227.915 942.929,193.422 918.292,159.564 940.326,120.384 574.337,153.11 600.043,186.496 									"/>
									<polygon clip-path="url(#SVGID_102_)" fill="#FFFFFF" points="630.769,163.501 664.803,160.327 663.206,169.492 
										639.01,171.75 637.344,181.499 658.669,179.508 657.14,188.668 635.816,190.658 632.769,208.393 622.938,209.312 									
										"/>
									<path clip-path="url(#SVGID_102_)" fill="#FFFFFF" d="M694.735,183.465l-3.418-14.559l-8.458,15.664L694.735,183.465z
										 M688.388,157.521l9.449-0.88l11.285,44.349l-10.09,0.941l-2.343-9.895l-18.893,1.765l-5.834,10.654l-10.601,0.989
										L688.388,157.521z"/>
									<g clip-path="url(#SVGID_102_)">
										<g>
											<defs>
												<polyline id="SVGID_103_" points="2260.519,308.183 2260.519,1.042 -761.78,1.042 -761.78,308.183 												"/>
											</defs>
											<clipPath id="SVGID_104_">
												<use xlink:href="#SVGID_103_"  overflow="visible"/>
											</clipPath>
											<path clip-path="url(#SVGID_104_)" fill="#FFFFFF" d="M715.337,192.33l6.82-6.954c3.867,3.508,7.955,5.185,13.062,4.712
												c3.957-0.371,6.656-2.488,6.396-5.297c-0.201-2.17-1.915-3.299-8.146-5.168c-6.03-1.822-11.494-4.467-12.109-11.042
												c-0.851-9.129,6.795-15.509,16.378-16.401c7.662-0.719,13.205,1.406,17.347,5.075l-6.139,7.402
												c-3.675-2.814-6.832-4.194-11.169-3.788c-4.148,0.387-6.304,2.905-6.095,5.14c0.223,2.363,2.104,3.218,8.399,5.14
												c6.364,1.918,11.25,4.554,11.855,11.067c0.875,9.386-6.977,15.659-16.364,16.535
												C726.954,199.552,720.059,197.363,715.337,192.33"/>
										</g>
										<g>
											<defs>
												<rect id="SVGID_105_" x="-16.733" y="-17.668" width="1530" height="957"/>
											</defs>
											<defs>
												<rect id="SVGID_106_" x="-16.733" y="-17.668" width="1530" height="957"/>
											</defs>
											<defs>
												<rect id="SVGID_107_" x="-16.733" y="-17.668" width="1530" height="957"/>
											</defs>
											<clipPath id="SVGID_108_">
												<use xlink:href="#SVGID_105_"  overflow="visible"/>
											</clipPath>
											<clipPath id="SVGID_109_" clip-path="url(#SVGID_108_)">
												<use xlink:href="#SVGID_106_"  overflow="visible"/>
											</clipPath>
											<clipPath id="SVGID_110_" clip-path="url(#SVGID_109_)">
												<use xlink:href="#SVGID_107_"  overflow="visible"/>
											</clipPath>
											<polygon clip-path="url(#SVGID_110_)" fill="#FFFFFF" points="778.257,158.045 764.658,159.313 766.24,150.019 
												803.271,146.567 801.691,155.861 788.091,157.127 781.835,193.646 772.003,194.566 											"/>
											<polygon clip-path="url(#SVGID_110_)" fill="#FFFFFF" points="813.507,145.189 846.9,142.079 845.355,151.043 
												821.732,153.247 820.154,162.602 840.908,160.67 839.347,169.506 818.597,171.443 816.923,181.131 840.931,178.889 
												839.384,187.857 805.671,191.002 											"/>
											<g clip-path="url(#SVGID_110_)">
												<g>
													<defs>
														<polyline id="SVGID_111_" points="2260.519,308.183 2260.519,1.042 -761.78,1.042 -761.78,308.183 														"/>
													</defs>
													<clipPath id="SVGID_112_">
														<use xlink:href="#SVGID_111_"  overflow="visible"/>
													</clipPath>
													<path clip-path="url(#SVGID_112_)" fill="#FFFFFF" d="M874.232,161.005c3.83-0.361,6.996-1.622,8.734-3.717
														c1.041-1.251,1.604-2.854,1.43-4.704c-0.146-1.527-0.691-2.574-1.738-3.445c-1.322-1.099-3.559-1.536-6.684-1.245
														l-8.24,0.771l-2.25,13.156L874.232,161.005z M859.441,140.487l16.275-1.52c6.646-0.621,11.314,0.428,14.594,3.144
														c2.445,2.028,3.947,5.047,4.287,8.68c0.4,4.28-0.727,8.121-3.098,10.981c-2.256,2.722-5.533,4.899-9.84,6.33
														l9.018,14.549l-11.172,1.043l-8.229-13.656l-7.346,0.686l-2.498,14.654l-9.828,0.917L859.441,140.487z"/>
												</g>
											</g>
										</g>
									</g>
								</g>
							</g>
						</g>
					</g>
				</g>
			</g>
		</g>
	</g>
</g>
</svg>
